<svg height="445" viewBox="0 0 445 445" width="445" xmlns="http://www.w3.org/2000/svg"><g fill="none" stroke-miterlimit="10" transform="matrix(4.94 0 0 4.94 -2.472222 -2.472222)"><path d="m2.653 89.174c-.256 0-.512-.098-.707-.293-.391-.391-.391-1.023 0-1.414l40.243-40.243c.391-.391 1.023-.391 1.414 0s.391 1.023 0 1.414l-40.243 40.243c-.196.195-.452.293-.707.293z" fill="#000"/><path d="m79.421 42.886c-.42 0-.83.04-1.234.098-.471-2.513-2.028-4.641-4.165-5.88-2.078 2.778-4.36 5.624-6.854 8.539l.246 9.709h10.621 9.12c.573-1.155.903-2.452.903-3.828 0-4.771-3.867-8.638-8.637-8.638z" fill="#f8cc1d"/><path d="m23.801 25.879c1.726-1.726 4.122-2.689 6.557-2.619l15.765.4c2.773-2.373 5.481-4.546 8.131-6.543-2.083-3.049-5.585-5.052-9.557-5.052-.563 0-1.111.054-1.653.132-1.003-5.367-5.704-9.43-11.361-9.43s-10.358 4.063-11.362 9.428c-.541-.078-1.09-.132-1.653-.132-6.389 0-11.568 5.179-11.568 11.568 0 1.844.443 3.581 1.21 5.128h12.611z" fill="#f8cc1d"/><path d="m66.501 30.498c-1.764 0-3.423-.687-4.67-1.935-1.248-1.248-1.936-2.906-1.936-4.67 0-1.765.688-3.423 1.936-4.671 1.247-1.248 2.906-1.935 4.67-1.935 1.765 0 3.424.687 4.671 1.935 1.248 1.248 1.935 2.906 1.935 4.671 0 1.764-.687 3.423-1.935 4.67-1.247 1.248-2.907 1.935-4.671 1.935zm0-11.211c-1.229 0-2.386.479-3.256 1.349s-1.35 2.026-1.35 3.257c0 1.23.479 2.386 1.35 3.256.87.87 2.026 1.349 3.256 1.349s2.387-.479 3.257-1.349 1.349-2.026 1.349-3.256-.479-2.387-1.349-3.257c-.871-.87-2.027-1.349-3.257-1.349z" fill="#000"/><path d="m89.987 4.147c.084-.903-.235-1.789-.877-2.431s-1.534-.961-2.431-.877c-11.629 1.089-25.508 8.523-41.408 22.147l-15.861-.402c-2.377-.071-4.688.867-6.362 2.541l-7.246 7.246c-.804.804-1.11 1.941-.817 3.04s1.123 1.933 2.221 2.231l11.27 3.056 7.056 7.055c.391.391 1.023.391 1.414 0s.391-1.023 0-1.414l-6.547-6.547c22.511-23.127 41.505-35.56 56.467-36.961.309-.024.611.081.83.3s.328.522.299.83c-1.4 14.961-13.835 33.956-36.961 56.467l-6.548-6.548c-.391-.391-1.023-.391-1.414 0s-.391 1.023 0 1.414l7.057 7.056 3.056 11.269c.297 1.099 1.132 1.929 2.231 2.222.274.073.551.109.825.109.82-.001 1.611-.323 2.214-.927l7.245-7.245c1.676-1.676 2.603-3.994 2.542-6.362l-.402-15.861c13.623-15.9 21.057-29.779 22.147-41.408zm-61.297 34.537-10.96-2.972c-.579-.157-.76-.623-.812-.815-.051-.193-.125-.688.299-1.111l7.246-7.246c1.29-1.289 3.08-2 4.897-1.956l13.674.346c-4.617 4.075-9.401 8.663-14.344 13.754zm37.552 22.783c.047 1.822-.666 3.607-1.956 4.897l-7.245 7.245c-.424.424-.917.35-1.11.299-.193-.052-.659-.233-.816-.813l-2.972-10.959c5.09-4.943 9.679-9.726 13.754-14.343z" fill="#000"/><g fill="#f8cc1d"><path d="m25.031 78.36c-.256 0-.512-.098-.707-.293-.391-.391-.391-1.023 0-1.414l16.346-16.347c.391-.391 1.023-.391 1.414 0s.391 1.023 0 1.414l-16.346 16.347c-.196.195-.452.293-.707.293z"/><path d="m8.92 70.356c-.256 0-.512-.098-.707-.293-.391-.391-.391-1.023 0-1.414l19.811-19.811c.391-.391 1.023-.391 1.414 0s.391 1.023 0 1.414l-19.811 19.811c-.196.196-.451.293-.707.293z"/><path d="m35.868 79.835c-.256 0-.512-.098-.707-.293-.391-.391-.391-1.023 0-1.414l8.834-8.835c.391-.391 1.023-.391 1.414 0s.391 1.023 0 1.414l-8.834 8.835c-.195.195-.451.293-.707.293z"/><path d="m13.346 53.618c-.256 0-.512-.098-.707-.293-.391-.391-.391-1.023 0-1.414l7.224-7.223c.391-.391 1.023-.391 1.414 0s.391 1.023 0 1.415l-7.224 7.223c-.195.194-.451.292-.707.292z"/><path d="m19.829 85.689c-.552 0-1-.447-1-1v-4.256c0-.553.448-1 1-1s1 .447 1 1v4.256c0 .553-.447 1-1 1z"/><path d="m21.957 83.561h-4.255c-.552 0-1-.447-1-1s.448-1 1-1h4.255c.552 0 1 .447 1 1s-.448 1-1 1z"/><path d="m8.137 60.955c-.552 0-1-.447-1-1v-4.256c0-.553.448-1 1-1s1 .447 1 1v4.256c0 .553-.447 1-1 1z"/><path d="m10.265 58.827h-4.255c-.552 0-1-.447-1-1s.448-1 1-1h4.255c.552 0 1 .447 1 1s-.448 1-1 1z"/><path d="m3.194 78.277c-.853 0-1.655-.333-2.259-.937-.603-.602-.935-1.405-.935-2.257s.332-1.655.935-2.259c1.246-1.244 3.272-1.244 4.517 0 .604.604.936 1.406.936 2.259s-.332 1.654-.935 2.258c-.604.603-1.406.936-2.259.936zm0-4.388c-.306 0-.611.116-.844.349-.226.226-.35.525-.35.845 0 .318.124.618.35.844.451.451 1.238.451 1.688 0 .226-.226.35-.525.35-.844s-.124-.619-.35-.845c-.233-.232-.539-.349-.844-.349z"/><path d="m30.658 87.236c-.818 0-1.636-.312-2.258-.934-.604-.603-.936-1.405-.936-2.259 0-.853.332-1.655.936-2.258 1.245-1.244 3.271-1.244 4.517 0 .604.603.936 1.405.936 2.258 0 .854-.332 1.656-.936 2.259-.623.623-1.441.934-2.259.934zm0-4.385c-.306 0-.611.116-.844.349-.226.226-.35.525-.35.844s.124.619.35.845c.466.465 1.223.465 1.688 0 .226-.226.35-.525.35-.845 0-.318-.124-.618-.35-.844-.232-.232-.538-.349-.844-.349z"/></g></g></svg>